<svg data-name="ABC Logo Mobile" xmlns="http://www.w3.org/2000/svg" width="69.394" height="69.394" viewBox="0 0 69.394 69.394">
    <defs>
        <clipPath id="mioa96opea">
            <path data-name="Rectangle 98" style="fill:#ddba7c" d="M0 0h69.394v69.394H0z"/>
        </clipPath>
    </defs>
    <g data-name="Group 46" style="clip-path:url(#mioa96opea)">
        <path data-name="Path 84" d="M35.552 29.628a5.206 5.206 0 0 0-5.4 5.14 5.344 5.344 0 0 0 5.4 5.4 4.96 4.96 0 0 0 5.007-5.14c0-3.029-1.978-5.4-5.007-5.4M34.635 0a34.7 34.7 0 1 0 34.759 34.768A34.713 34.713 0 0 0 34.635 0M22.778 43.453h-3.812v-1.968a7.775 7.775 0 0 1-5.266 1.968c-3.688 0-5.933-1.185-7.376-2.895a9.7 9.7 0 0 1-2.236-5.79 9.219 9.219 0 0 1 9.736-9.488c2.369 0 8.952 1.452 8.952 9.354zm19.491-2.369a9.1 9.1 0 0 1-6.583 3.029 10.482 10.482 0 0 1-7.242-2.761 9.432 9.432 0 0 1-2.637-6.984V19.883h4.213v7.9l.134-.124a7.416 7.416 0 0 1 5.007-2.112 9.245 9.245 0 0 1 9.339 9.088 11.559 11.559 0 0 1-2.236 6.449m13.959 3.029a9.3 9.3 0 0 1-6.449-2.761 9.062 9.062 0 0 1-2.9-6.851 9.384 9.384 0 0 1 9.354-9.344 9.2 9.2 0 0 1 8.819 6.449h-4.74a4.476 4.476 0 0 0-4.213-2.236 4.874 4.874 0 0 0-5.007 5.13 5.158 5.158 0 0 0 5.274 5.4 4.933 4.933 0 0 0 3.946-2.236h4.739a9.335 9.335 0 0 1-8.819 6.449" style="fill-rule:evenodd;fill:#ddba7c"/>
        <path data-name="Path 85" d="M19.218 35.723A5.054 5.054 0 0 1 13.953 41a5.02 5.02 0 0 1-5.264-5.14 5.228 5.228 0 0 1 5.264-5.4 5.117 5.117 0 0 1 5.264 5.264" transform="translate(-.387 -1.357)" style="fill-rule:evenodd;fill:#ddba7c"/>
    </g>
</svg>
