<svg data-name="Cosmopolitan Logo Mobile" xmlns="http://www.w3.org/2000/svg" width="158.075" height="26.265" viewBox="0 0 158.075 26.265">
    <defs>
        <clipPath id="tsux0rko7a">
            <path data-name="Rectangle 100" style="fill:#ddba7c" d="M0 0h158.075v26.265H0z"/>
        </clipPath>
    </defs>
    <g data-name="Group 49" style="clip-path:url(#tsux0rko7a)">
        <path data-name="Path 86" d="M80.585 2.356A6 6 0 0 0 74.138.235C71.79.772 70.149 3.2 69.585 5.381a35.214 35.214 0 0 0-.481 13.46c.481 2.687 1.443 5.77 4.3 6.873a6.161 6.161 0 0 0 6.476-1.132c2.658-2.8 2.912-6.674 3.11-10.463.085-3.9-.141-7.692-1.838-10.916zm-2.432 17.108c-.311 1.131-.595 2.658-1.98 2.97a1.822 1.822 0 0 1-1.81-.622c-1.018-1.471-1.046-3.366-1.159-5.2-.17-3.9-.425-8.117.791-11.623a2.116 2.116 0 0 1 1.584-1.219 1.863 1.863 0 0 1 1.894.962c.792 1.442.82 3.224 1.018 4.92a43.609 43.609 0 0 1-.339 9.813" transform="translate(-6.907)" style="fill-rule:evenodd;fill:#ddba7c"/>
        <path data-name="Path 87" d="M22.94.071a6.235 6.235 0 0 0-5.4 3.789 24.167 24.167 0 0 0-1.555 8.993c.113 4.016.085 8.117 2.4 11.2a5.6 5.6 0 0 0 5.373 2.121 6.065 6.065 0 0 0 4.842-3.537c1.358-2.969 1.641-6.447 1.641-9.925-.085-3.45-.282-6.872-1.9-9.7A5.853 5.853 0 0 0 22.94.071M24.977 21a2.265 2.265 0 0 1-1.668 1.555 1.677 1.677 0 0 1-1.527-.452 5.206 5.206 0 0 1-1.131-2.969 45.987 45.987 0 0 1 .225-12.474c.282-1.1.537-2.6 1.923-2.885a1.924 1.924 0 0 1 2.093 1.159c1.017 2.4.933 5.26.962 8.031-.085 2.771-.029 5.571-.877 8.031" transform="translate(-1.607 -.006)" style="fill-rule:evenodd;fill:#ddba7c"/>
        <path data-name="Path 88" d="M43.106 13.733c-1.923-2.064-5.175-3.111-5.854-6.024-.141-1.414-.255-3.2 1.159-3.9a1.657 1.657 0 0 1 1.273.029 2.5 2.5 0 0 1 1.074 1.838 21.732 21.732 0 0 1 .17 3.068h4.015a11.121 11.121 0 0 0-.9-5.81A5.365 5.365 0 0 0 41.579.64a6.213 6.213 0 0 0-6.249.678 7.658 7.658 0 0 0-2.206 7.664c.736 3.2 4.186 4.92 6.448 7.126a4.552 4.552 0 0 1 1.471 4.185 2.524 2.524 0 0 1-1.643 2.376 1.751 1.751 0 0 1-1.555-.368c-1.3-1.357-1.018-3.507-1.018-5.4 0 0-2.8-.029-4.157 0-.2 2.545 0 5.2 1.555 7.211a6.42 6.42 0 0 0 6.221 1.9A5.914 5.914 0 0 0 45 21.623a7.853 7.853 0 0 0-1.894-7.89" transform="translate(-3.279 -.009)" style="fill-rule:evenodd;fill:#ddba7c"/>
        <path data-name="Path 89" d="M107.437.158a5.943 5.943 0 0 0-4.837 3.788c-1.443 3.535-1.527 7.749-1.358 11.82.34 3.875.736 8.371 4.836 10.1a6.222 6.222 0 0 0 6.391-1.273c2.348-2.6 2.743-6.024 3-9.5.085-3.9-.057-7.89-1.527-11.227a6.156 6.156 0 0 0-6.5-3.7m3.158 19.815c-.282.934-.622 2.093-1.668 2.46a1.949 1.949 0 0 1-2.15-.707 6.765 6.765 0 0 1-.9-3 46.42 46.42 0 0 1 .029-11.877 3.882 3.882 0 0 1 1.584-2.885 1.914 1.914 0 0 1 2.121.4c1.046 1.386 1.1 3.2 1.329 4.949a44.752 44.752 0 0 1-.34 10.661" transform="translate(-10.174 -.007)" style="fill-rule:evenodd;fill:#ddba7c"/>
        <path data-name="Path 90" d="M13.386 15.521H9.172c-.141 2.205.029 4.5-.933 6.334a1.539 1.539 0 0 1-1.639.735c-.792-.2-1.187-1.046-1.442-1.753A40.955 40.955 0 0 1 4.564 7.8a5.946 5.946 0 0 1 1.272-3.648 1.626 1.626 0 0 1 1.442-.17 2.849 2.849 0 0 1 1.357 2.263c.227 1.244.227 2.629.368 3.9h4.185a14.388 14.388 0 0 0-1.527-7.239A5.64 5.64 0 0 0 5.3.335C2.357.928 1.029 4.039.52 6.612c0 .283-.2.622-.057.848-.028.029-.113 0-.113.085a39.764 39.764 0 0 0-.339 6.872c.255 3.506.4 7.07 2.46 9.841a5.894 5.894 0 0 0 6.419 1.726c3.676-1.357 4.383-5.373 4.582-8.879a5.873 5.873 0 0 0-.085-1.584" transform="translate(0 -.015)" style="fill-rule:evenodd;fill:#ddba7c"/>
        <path data-name="Path 91" d="m56.684 15.239-.085.17A849.128 849.128 0 0 1 53.631.761h-5.8v24.913h3.832V8.537L53.8 19.2c.452 2.149 1.3 6.476 1.3 6.476h3.055l3.45-16.4v16.412h3.747V.732h-5.613z" transform="translate(-4.81 -.073)" style="fill-rule:evenodd;fill:#ddba7c"/>
        <path data-name="Path 92" d="m93.291.732-7.352.029v24.927h4.284v-8.753h2.447a5.9 5.9 0 0 0 4.524-1.979c2.461-2.545 2.63-6.844 1.471-10.067-.877-2.121-3-4.073-5.373-4.157m.679 11.736c-.9 1.1-2.3 1.046-3.662 1.046V4.38c.056-.085-.042-.226.127-.2 1.555-.141 3.224.113 3.931 1.64.906 1.952.99 4.893-.4 6.646" transform="translate(-8.642 -.073)" style="fill-rule:evenodd;fill:#ddba7c"/>
        <path data-name="Path 93" d="M123.114.732h-4.242v24.943h8.568v-3.337h-4.326z" transform="translate(-11.954 -.073)" style="fill-rule:evenodd;fill:#ddba7c"/>
        <path data-name="Rectangle 99" transform="translate(116.534 .658)" style="fill:#ddba7c" d="M0 0h4.185v24.97H0z"/>
        <path data-name="Path 94" d="M146.4.732h-11.383v3.592h3.677V25.7h4.079V4.278h3.627z" transform="translate(-13.577 -.073)" style="fill-rule:evenodd;fill:#ddba7c"/>
        <path data-name="Path 95" d="m149.684.732-4.072 24.985h4.128l1.132-6.972h3.7l1.187 6.956h3.931L155.509.732zm1.641 14.549 1.3-9.035.029-.113c.48 3.026 1.357 9.148 1.357 9.148z" transform="translate(-14.642 -.073)" style="fill-rule:evenodd;fill:#ddba7c"/>
        <path data-name="Path 96" d="M170.884.732v15.242c-.029-.028-3.974-15.242-3.974-15.242h-4.665v24.956h3.534V9.951c.17.509 4.128 15.751 4.128 15.751h4.482V.732z" transform="translate(-16.315 -.073)" style="fill-rule:evenodd;fill:#ddba7c"/>
    </g>
</svg>
