<svg xmlns="http://www.w3.org/2000/svg" width="115.973" height="30.14" viewBox="0 0 115.973 30.14">
    <g data-name="Dr Phil Logo Mobile">
        <path data-name="Path 1" d="M212.806 30.257a25.081 25.081 0 0 1 6.713.551c3.862 1.058 6.1 3.9 6.1 7.239 0 3.811-3.027 6.013-5.616 6.9a23.63 23.63 0 0 1-7.417.8H210v13.4h3.949V60.4h-12.728v-1.249h3.862v-27.2h-3.949v-1.7zM210 31.949v12.625h3.6c2.364-.04 3.913-.04 5.1-1.338.937-.982 1.263-2.28 1.263-4.955a9.677 9.677 0 0 0-.612-4.247c-1.1-2.085-2.975-2.085-6.767-2.085H210" transform="translate(-149.774 -30.257)" style="fill:#ddba7c"/>
        <path data-name="Path 2" d="M283.173 31.952v27.2h-2.94V60.4h10.006v-1.249h-2.809v-7.046c.089-3.43.176-5.123 1.536-6.818a4.871 4.871 0 0 1 3.86-1.821c2.984 0 2.94 2.37 2.94 4.15v11.535h-2.809V60.4h28.321v-1.249h-3.338V30.257l-.284.06a27.181 27.181 0 0 1-3.416.289c-1.227.032-2.353.032-3 .032v1.313h2.449v27.2h-4.741V42.705l-.21.045a24.57 24.57 0 0 1-3.382.269c-1.227.032-2.354.032-3 .032v1.184h2.467v14.916h-4.755V47.87c0-1.144-.044-2.879-1.053-3.979A6.637 6.637 0 0 0 294.1 42.2a8.218 8.218 0 0 0-6.67 3V30.257l-.1.021a26.242 26.242 0 0 1-3.624.319c-1.227.032-2.354.032-3 .032v1.322" transform="translate(-205.306 -30.257)" style="fill:#ddba7c"/>
        <path data-name="Path 3" d="M129.394 72.741v14.538h-2.964v1.245h9.939v-1.245h-2.833v-4.771a18.468 18.468 0 0 1 1.308-7.823c.915-2.1 1.744-2.146 1.829-2.146.437 0 .437.209.524 1.093a1.937 1.937 0 0 0 2.049 1.852 2.16 2.16 0 0 0 2.265-2.187 2.581 2.581 0 0 0-2.832-2.482 4.967 4.967 0 0 0-4.054 2.314 8.734 8.734 0 0 0-1.09 2.144v-4.027l.034-.012-.034.005v-.047l-.758.161c-.889.114-1.878.176-2.79.2-1.2.032-2.29.032-2.921.032v1.156h2.327" transform="translate(-97.33 -58.73)" style="fill:#ddba7c"/>
        <path data-name="Path 4" d="M28.767 59.025h3.881v-27.2h-3.619v-1.256h9.809a28.774 28.774 0 0 1 8.153.717c5.189 1.473 9.636 6.478 9.636 14.05a15.507 15.507 0 0 1-4.4 11.105c-3.838 3.788-7.936 3.788-11.468 3.83H28.767zm8.894-27.2v27.2h2.3c2.641 0 5.833 0 8.006-1.931 2.426-2.1 2.6-5.671 2.6-12.04a46.2 46.2 0 0 0-.3-6.37 7.935 7.935 0 0 0-1.831-4.559c-2.045-2.22-4.6-2.22-9.583-2.3h-1.192" transform="translate(-28.767 -30.476)" style="fill:#ddba7c"/>
        <path data-name="Path 5" d="M176.081 115.744a2.688 2.688 0 1 1-2.688-2.688 2.688 2.688 0 0 1 2.688 2.688" transform="translate(-128.413 -88.385)" style="fill:#ddba7c"/>
        <path data-name="Path 6" d="M365.453 34.1a2.688 2.688 0 1 1-2.688-2.688 2.688 2.688 0 0 1 2.688 2.688" transform="translate(-261.358 -31.065)" style="fill:#ddba7c"/>
    </g>
</svg>
