<svg data-name="Oprah Logo Mobile" xmlns="http://www.w3.org/2000/svg" width="52.112" height="69.394" viewBox="0 0 52.112 69.394">
    <defs>
        <clipPath id="b3gd9khjna">
            <path data-name="Rectangle 104" style="fill:#ddba7c" d="M0 0h52.112v69.394H0z"/>
        </clipPath>
    </defs>
    <g data-name="Group 51" style="clip-path:url(#b3gd9khjna)">
        <path data-name="Path 105" d="M45.8 25.3c0 11.286-1.97 23.934-13.1 23.934-10.453 0-12.574-12.648-12.5-23.555.073-11.894 1.739-24.77 12.571-24.77C43.526.909 45.8 13.331 45.8 25.3M32.7 50.141c13.406 0 23.481-11.663 23.481-25.07C56.176 11.74 46.253 0 32.847 0 19.969 0 9.82 12.043 9.82 25.45c0 13.1 9.771 24.692 22.875 24.692" transform="translate(-6.94)" style="fill:#ddba7c"/>
        <path data-name="Path 106" d="M75.243 189.9a1.7 1.7 0 1 1-1.7-1.752 1.709 1.709 0 0 1 1.7 1.752m.7 0a2.4 2.4 0 1 0-2.4 2.355 2.346 2.346 0 0 0 2.4-2.355" transform="translate(-50.279 -132.55)" style="fill:#ddba7c"/>
        <path data-name="Path 107" d="M75.243 189.9a1.7 1.7 0 1 1-1.7-1.752 1.709 1.709 0 0 1 1.7 1.752zm.7 0a2.4 2.4 0 1 0-2.4 2.355 2.346 2.346 0 0 0 2.395-2.355z" transform="translate(-50.279 -132.55)" style="fill:#ddba7c"/>
        <path data-name="Path 108" d="M100.785 189.137a.714.714 0 0 1-.8.688h-.56v-1.376h.56a.718.718 0 0 1 .8.688m.68 0a1.286 1.286 0 0 0-1.363-1.27h-1.361v4.526h.682v-1.986h.68a1.286 1.286 0 0 0 1.363-1.27" transform="translate(-69.783 -132.771)" style="fill:#ddba7c"/>
        <path data-name="Path 109" d="M100.785 189.137a.714.714 0 0 1-.8.688h-.56v-1.376h.56a.718.718 0 0 1 .8.688zm.68 0a1.286 1.286 0 0 0-1.363-1.27h-1.361v4.526h.682v-1.986h.68a1.286 1.286 0 0 0 1.362-1.27z" transform="translate(-69.783 -132.771)" style="fill:#ddba7c"/>
        <path data-name="Path 110" d="M120.86 189.136a.713.713 0 0 1-.8.688h-.632v-1.376h.632a.717.717 0 0 1 .8.688m1.432 3.256-1.545-2.093a1.208 1.208 0 0 0 .794-1.163 1.284 1.284 0 0 0-1.361-1.27h-1.434v4.526h.681v-1.986h.639l1.426 1.986z" transform="translate(-83.921 -132.771)" style="fill:#ddba7c"/>
        <path data-name="Path 111" d="M120.86 189.136a.713.713 0 0 1-.8.688h-.632v-1.376h.632a.717.717 0 0 1 .8.688zm1.432 3.256-1.545-2.093a1.208 1.208 0 0 0 .794-1.163 1.284 1.284 0 0 0-1.361-1.27h-1.434v4.526h.681v-1.986h.639l1.426 1.986z" transform="translate(-83.921 -132.771)" style="fill:#ddba7c"/>
        <path data-name="Path 112" d="M142.489 190.522h-1.3l.348-.858c.092-.234.17-.439.293-.8h.013c.121.355.2.561.3.809zm1.412 1.717-1.93-4.59h-.248l-1.929 4.59h.673l.489-1.17h1.76l.489 1.17z" transform="translate(-98.797 -132.617)" style="fill:#ddba7c"/>
        <path data-name="Path 113" d="M142.489 190.522h-1.3l.348-.858c.092-.234.17-.439.293-.8h.013c.121.355.2.561.3.809zm1.412 1.717-1.93-4.59h-.248l-1.929 4.59h.673l.489-1.17h1.76l.489 1.17z" transform="translate(-98.797 -132.617)" style="fill:#ddba7c"/>
        <path data-name="Path 114" d="M167.584 192.393v-1.979h-2.334v1.979h-.686v-4.526h.686v1.958h2.334v-1.958h.688v4.526z" transform="translate(-116.303 -132.771)" style="fill:#ddba7c"/>
        <path data-name="Path 115" d="M167.584 192.393v-1.979h-2.334v1.979h-.686v-4.526h.686v1.958h2.334v-1.958h.688v4.526z" transform="translate(-116.303 -132.771)" style="fill:#ddba7c"/>
        <path data-name="Path 116" d="M2.653 188.455v3.963h-.688v-3.963H.51v-.594h3.6v.594z" transform="translate(-.361 -132.767)" style="fill:#ddba7c"/>
        <path data-name="Path 117" d="M2.653 188.455v3.963h-.688v-3.963H.51v-.594h3.6v.594z" transform="translate(-.361 -132.767)" style="fill:#ddba7c"/>
        <path data-name="Path 118" d="M26.2 192.418v-1.992h-2.336v1.992h-.688v-4.557h.688v1.972H26.2v-1.972h.688v4.557z" transform="translate(-16.379 -132.767)" style="fill:#ddba7c"/>
        <path data-name="Path 119" d="M26.2 192.418v-1.992h-2.336v1.992h-.688v-4.557h.688v1.972H26.2v-1.972h.688v4.557z" transform="translate(-16.379 -132.767)" style="fill:#ddba7c"/>
        <path data-name="Path 120" d="M47.681 192.418v-4.557h2.44v.594h-1.752v1.378h1.469v.593h-1.469v1.4h2v.592z" transform="translate(-33.697 -132.767)" style="fill:#ddba7c"/>
        <path data-name="Path 121" d="M47.681 192.418v-4.557h2.44v.594h-1.752v1.378h1.469v.593h-1.469v1.4h2v.592z" transform="translate(-33.697 -132.767)" style="fill:#ddba7c"/>
        <path data-name="Path 122" d="m4.8 225.051-.135-1.508a46.065 46.065 0 0 1-.12-1.585h-.017c-.213.45-.447.936-.7 1.421l-.865 1.708h-.251l-.872-1.693a38.707 38.707 0 0 1-.7-1.421h-.01a77.938 77.938 0 0 1-.121 1.584l-.127 1.494H.271l.391-4.557h.426l1.078 2.092c.263.514.5.986.7 1.422h.015c.184-.43.411-.9.681-1.429l1.063-2.085h.426l.4 4.557z" transform="translate(-.192 -155.83)" style="fill:#ddba7c"/>
        <path data-name="Path 123" d="m4.8 225.051-.135-1.508a46.065 46.065 0 0 1-.12-1.585h-.017c-.213.45-.447.936-.7 1.421l-.865 1.708h-.251l-.872-1.693a38.707 38.707 0 0 1-.7-1.421h-.01a77.938 77.938 0 0 1-.121 1.584l-.127 1.494H.271l.391-4.557h.426l1.078 2.092c.263.514.5.986.7 1.422h.015c.184-.43.411-.9.681-1.429l1.063-2.085h.426l.4 4.557z" transform="translate(-.192 -155.83)" style="fill:#ddba7c"/>
        <path data-name="Path 124" d="M31.7 223.166h-1.3l.348-.863c.092-.237.17-.443.291-.809h.014c.121.357.2.566.3.816zm1.411 1.728-1.929-4.621h-.248l-1.93 4.621h.674l.489-1.179h1.759l.489 1.179z" transform="translate(-20.499 -155.674)" style="fill:#ddba7c"/>
        <path data-name="Path 125" d="M31.7 223.166h-1.3l.348-.863c.092-.237.17-.443.291-.809h.014c.121.357.2.566.3.816zm1.411 1.728-1.929-4.621h-.248l-1.93 4.621h.674l.489-1.179h1.759l.489 1.179z" transform="translate(-20.499 -155.674)" style="fill:#ddba7c"/>
        <path data-name="Path 126" d="M55.7 224.911a2.37 2.37 0 1 1-.042-4.736 2.74 2.74 0 0 1 1.461.365l-.128.6a2.351 2.351 0 0 0-1.255-.365 1.741 1.741 0 0 0-1.823 1.779 1.718 1.718 0 0 0 1.83 1.756 1.67 1.67 0 0 0 .958-.237v-.948H55.66v-.558h1.7v1.851a2.527 2.527 0 0 1-1.653.493" transform="translate(-37.612 -155.604)" style="fill:#ddba7c"/>
        <path data-name="Path 127" d="M55.7 224.911a2.37 2.37 0 1 1-.042-4.736 2.74 2.74 0 0 1 1.461.365l-.128.6a2.351 2.351 0 0 0-1.255-.365 1.741 1.741 0 0 0-1.823 1.779 1.718 1.718 0 0 0 1.83 1.756 1.67 1.67 0 0 0 .958-.237v-.948H55.66v-.558h1.7v1.851a2.527 2.527 0 0 1-1.66.493z" transform="translate(-37.612 -155.604)" style="fill:#ddba7c"/>
        <path data-name="Path 128" d="M81.408 223.166h-1.3l.347-.863c.092-.237.17-.443.292-.809h.014c.12.357.2.566.3.816zm1.412 1.728-1.93-4.621h-.248l-1.929 4.621h.674l.488-1.179h1.76l.49 1.179z" transform="translate(-55.629 -155.674)" style="fill:#ddba7c"/>
        <path data-name="Path 129" d="M81.408 223.166h-1.3l.347-.863c.092-.237.17-.443.292-.809h.014c.12.357.2.566.3.816zm1.412 1.728-1.93-4.621h-.248l-1.929 4.621h.674l.488-1.179h1.76l.49 1.179z" transform="translate(-55.629 -155.674)" style="fill:#ddba7c"/>
        <path data-name="Path 130" d="M103.434 225.051v-.165l1.489-2.635c.235-.407.468-.821.688-1.171l-.007-.007h-2.058v-.578h2.979v.163l-1.5 2.628c-.213.372-.468.815-.689 1.18l.008.006h2.292v.579z" transform="translate(-73.1 -155.83)" style="fill:#ddba7c"/>
        <path data-name="Path 131" d="M103.434 225.051v-.165l1.489-2.635c.235-.407.468-.821.688-1.171l-.007-.007h-2.058v-.578h2.979v.163l-1.5 2.628c-.213.372-.468.815-.689 1.18l.008.006h2.292v.579z" transform="translate(-73.1 -155.83)" style="fill:#ddba7c"/>
        <path data-name="Rectangle 102" transform="translate(37.079 64.664)" style="fill:#ddba7c" d="M0 0h.688v4.557H0z"/>
        <path data-name="Rectangle 103" transform="translate(37.079 64.664)" style="fill:#ddba7c" d="M0 0h.688v4.557H0z"/>
        <path data-name="Path 132" d="m145.644 225.151-1.973-2.143c-.412-.443-.85-.936-1.191-1.358l-.015.008c.015.413.015.736.015 1.071v2.321h-.69v-4.557h.476l1.724 1.907c.39.435.822.913 1.171 1.35l.013-.007c-.013-.35-.013-.729-.013-1.065v-2.185h.688v4.657z" transform="translate(-100.207 -155.83)" style="fill:#ddba7c"/>
        <path data-name="Path 133" d="m145.644 225.151-1.973-2.143c-.412-.443-.85-.936-1.191-1.358l-.015.008c.015.413.015.736.015 1.071v2.321h-.69v-4.557h.476l1.724 1.907c.39.435.822.913 1.171 1.35l.013-.007c-.013-.35-.013-.729-.013-1.065v-2.185h.688v4.657z" transform="translate(-100.207 -155.83)" style="fill:#ddba7c"/>
        <path data-name="Path 134" d="M168.281 225.05v-4.557h2.439v.592h-1.751v1.38h1.469v.592h-1.469v1.4h2v.593z" transform="translate(-118.929 -155.83)" style="fill:#ddba7c"/>
        <path data-name="Path 135" d="M168.281 225.05v-4.557h2.439v.592h-1.751v1.38h1.469v.592h-1.469v1.4h2v.593z" transform="translate(-118.929 -155.83)" style="fill:#ddba7c"/>
    </g>
</svg>
